M48
;DRILL file {KiCad 4.0.7-e2-6376~58~ubuntu16.04.1} date Thu Jan  4 18:12:57 2018
;FORMAT={-:-/ absolute / metric / decimal}
FMAT,2
METRIC,TZ
T1C0.400
T2C0.762
T3C0.800
T4C1.000
%
G90
G05
M71
T1
X148.59Y-121.158
X157.48Y-114.046
X158.75Y-132.08
T2
X151.638Y-110.998
X151.638Y-113.538
X151.638Y-116.078
X151.638Y-118.618
X151.638Y-121.158
X151.638Y-123.698
X151.638Y-126.238
X151.638Y-128.778
X151.638Y-131.318
X151.638Y-133.858
X151.638Y-136.398
X151.638Y-138.938
X166.878Y-110.998
X166.878Y-113.538
X166.878Y-116.078
X166.878Y-118.618
X166.878Y-121.158
X166.878Y-123.698
X166.878Y-126.238
X166.878Y-128.778
X166.878Y-131.318
X166.878Y-133.858
X166.878Y-136.398
X166.878Y-138.938
T3
X156.21Y-139.192
X163.83Y-139.192
T4
X146.812Y-112.014
X146.812Y-114.554
X146.812Y-117.094
X146.812Y-136.144
X146.812Y-138.684
X147.066Y-125.984
X147.066Y-128.524
X155.06Y-112.776
X162.56Y-112.776
T0
M30
