G04 #@! TF.FileFunction,Copper,L2,Bot,Signal*
%FSLAX46Y46*%
G04 Gerber Fmt 4.6, Leading zero omitted, Abs format (unit mm)*
G04 Created by KiCad (PCBNEW 4.0.7-e2-6376~58~ubuntu16.04.1) date Thu Jan  4 23:54:05 2018*
%MOMM*%
%LPD*%
G01*
G04 APERTURE LIST*
%ADD10C,0.020000*%
%ADD11C,1.524000*%
%ADD12R,2.000000X2.000000*%
%ADD13C,2.000000*%
%ADD14C,1.600000*%
%ADD15O,1.600000X1.600000*%
%ADD16R,1.700000X1.700000*%
%ADD17O,1.700000X1.700000*%
%ADD18C,0.600000*%
%ADD19C,0.250000*%
G04 APERTURE END LIST*
D10*
D11*
X151638000Y-110998000D03*
X151638000Y-113538000D03*
X151638000Y-116078000D03*
X151638000Y-118618000D03*
X151638000Y-121158000D03*
X151638000Y-123698000D03*
X151638000Y-126238000D03*
X151638000Y-128778000D03*
X151638000Y-131318000D03*
X151638000Y-133858000D03*
X151638000Y-136398000D03*
X151638000Y-138938000D03*
X166878000Y-110998000D03*
X166878000Y-113538000D03*
X166878000Y-116078000D03*
X166878000Y-118618000D03*
X166878000Y-121158000D03*
X166878000Y-123698000D03*
X166878000Y-126238000D03*
X166878000Y-128778000D03*
X166878000Y-131318000D03*
X166878000Y-133858000D03*
X166878000Y-136398000D03*
X166878000Y-138938000D03*
D12*
X162560000Y-112776000D03*
D13*
X155060000Y-112776000D03*
D14*
X156210000Y-139192000D03*
D15*
X163830000Y-139192000D03*
D16*
X146812000Y-112014000D03*
D17*
X146812000Y-114554000D03*
X146812000Y-117094000D03*
D16*
X147066000Y-125984000D03*
D17*
X147066000Y-128524000D03*
D16*
X146812000Y-136144000D03*
D17*
X146812000Y-138684000D03*
D18*
X158750000Y-132080000D03*
X157480000Y-114046000D03*
X148590000Y-121158000D03*
D19*
X163830000Y-118618000D02*
X166878000Y-118618000D01*
X162560000Y-119888000D02*
X163830000Y-118618000D01*
X162560000Y-128270000D02*
X162560000Y-119888000D01*
X158750000Y-132080000D02*
X162560000Y-128270000D01*
X146812000Y-117094000D02*
X148082000Y-117094000D01*
X160528000Y-114808000D02*
X162560000Y-112776000D01*
X150368000Y-114808000D02*
X160528000Y-114808000D01*
X148082000Y-117094000D02*
X150368000Y-114808000D01*
X146812000Y-112014000D02*
X148082000Y-112014000D01*
X157480000Y-110744000D02*
X157480000Y-114046000D01*
X155194000Y-108458000D02*
X157480000Y-110744000D01*
X151638000Y-108458000D02*
X155194000Y-108458000D01*
X148082000Y-112014000D02*
X151638000Y-108458000D01*
X148590000Y-121158000D02*
X151638000Y-121158000D01*
X146812000Y-138684000D02*
X148590000Y-138684000D01*
X150114000Y-125222000D02*
X151638000Y-123698000D01*
X150114000Y-137160000D02*
X150114000Y-125222000D01*
X148590000Y-138684000D02*
X150114000Y-137160000D01*
M02*
