M48
METRIC,TZ
T1C0.400
T2C0.762
T3C0.800
T4C1.000
%
G90
G05
T1
X148590Y-121158
X157480Y-114046
X158750Y-132080
T2
X151638Y-110998
X151638Y-113538
X151638Y-116078
X151638Y-118618
X151638Y-121158
X151638Y-123698
X151638Y-126238
X151638Y-128778
X151638Y-131318
X151638Y-133858
X151638Y-136398
X151638Y-138938
X166878Y-110998
X166878Y-113538
X166878Y-116078
X166878Y-118618
X166878Y-121158
X166878Y-123698
X166878Y-126238
X166878Y-128778
X166878Y-131318
X166878Y-133858
X166878Y-136398
X166878Y-138938
T3
X156210Y-139192
X163830Y-139192
T4
X146812Y-112014
X146812Y-114554
X146812Y-117094
X146812Y-136144
X146812Y-138684
X147066Y-125984
X147066Y-128524
X155060Y-112776
X162560Y-112776
T0
M30
