G04 #@! TF.FileFunction,Legend,Top*
%FSLAX46Y46*%
G04 Gerber Fmt 4.6, Leading zero omitted, Abs format (unit mm)*
G04 Created by KiCad (PCBNEW 4.0.7-e2-6376~58~ubuntu16.04.1) date Thu Jan  4 23:54:05 2018*
%MOMM*%
%LPD*%
G01*
G04 APERTURE LIST*
%ADD10C,0.020000*%
%ADD11C,0.300000*%
%ADD12C,0.250000*%
%ADD13C,0.120000*%
%ADD14C,0.150000*%
G04 APERTURE END LIST*
D10*
D11*
X161206571Y-133214286D02*
X159706571Y-133214286D01*
X160278000Y-133214286D02*
X160206571Y-133071429D01*
X160206571Y-132785715D01*
X160278000Y-132642858D01*
X160349429Y-132571429D01*
X160492286Y-132500000D01*
X160920857Y-132500000D01*
X161063714Y-132571429D01*
X161135143Y-132642858D01*
X161206571Y-132785715D01*
X161206571Y-133071429D01*
X161135143Y-133214286D01*
X160206571Y-132000000D02*
X161206571Y-131642857D01*
X160206571Y-131285715D02*
X161206571Y-131642857D01*
X161563714Y-131785715D01*
X161635143Y-131857143D01*
X161706571Y-132000000D01*
X161206571Y-128928572D02*
X160420857Y-128928572D01*
X160278000Y-129000001D01*
X160206571Y-129142858D01*
X160206571Y-129428572D01*
X160278000Y-129571429D01*
X161135143Y-128928572D02*
X161206571Y-129071429D01*
X161206571Y-129428572D01*
X161135143Y-129571429D01*
X160992286Y-129642858D01*
X160849429Y-129642858D01*
X160706571Y-129571429D01*
X160635143Y-129428572D01*
X160635143Y-129071429D01*
X160563714Y-128928572D01*
X161206571Y-128214286D02*
X159706571Y-128214286D01*
X160635143Y-128071429D02*
X161206571Y-127642858D01*
X160206571Y-127642858D02*
X160778000Y-128214286D01*
X161206571Y-127000000D02*
X160206571Y-127000000D01*
X159706571Y-127000000D02*
X159778000Y-127071429D01*
X159849429Y-127000000D01*
X159778000Y-126928572D01*
X159706571Y-127000000D01*
X159849429Y-127000000D01*
X161206571Y-126285714D02*
X160206571Y-126285714D01*
X160492286Y-126285714D02*
X160349429Y-126214286D01*
X160278000Y-126142857D01*
X160206571Y-126000000D01*
X160206571Y-125857143D01*
X161206571Y-124714286D02*
X160420857Y-124714286D01*
X160278000Y-124785715D01*
X160206571Y-124928572D01*
X160206571Y-125214286D01*
X160278000Y-125357143D01*
X161135143Y-124714286D02*
X161206571Y-124857143D01*
X161206571Y-125214286D01*
X161135143Y-125357143D01*
X160992286Y-125428572D01*
X160849429Y-125428572D01*
X160706571Y-125357143D01*
X160635143Y-125214286D01*
X160635143Y-124857143D01*
X160563714Y-124714286D01*
X161135143Y-124071429D02*
X161206571Y-123928572D01*
X161206571Y-123642857D01*
X161135143Y-123500000D01*
X160992286Y-123428572D01*
X160920857Y-123428572D01*
X160778000Y-123500000D01*
X160706571Y-123642857D01*
X160706571Y-123857143D01*
X160635143Y-124000000D01*
X160492286Y-124071429D01*
X160420857Y-124071429D01*
X160278000Y-124000000D01*
X160206571Y-123857143D01*
X160206571Y-123642857D01*
X160278000Y-123500000D01*
X161206571Y-122142857D02*
X160420857Y-122142857D01*
X160278000Y-122214286D01*
X160206571Y-122357143D01*
X160206571Y-122642857D01*
X160278000Y-122785714D01*
X161135143Y-122142857D02*
X161206571Y-122285714D01*
X161206571Y-122642857D01*
X161135143Y-122785714D01*
X160992286Y-122857143D01*
X160849429Y-122857143D01*
X160706571Y-122785714D01*
X160635143Y-122642857D01*
X160635143Y-122285714D01*
X160563714Y-122142857D01*
X160206571Y-121428571D02*
X161206571Y-121428571D01*
X160349429Y-121428571D02*
X160278000Y-121357143D01*
X160206571Y-121214285D01*
X160206571Y-121000000D01*
X160278000Y-120857143D01*
X160420857Y-120785714D01*
X161206571Y-120785714D01*
D12*
X164409524Y-109672381D02*
X164076190Y-109196190D01*
X163838095Y-109672381D02*
X163838095Y-108672381D01*
X164219048Y-108672381D01*
X164314286Y-108720000D01*
X164361905Y-108767619D01*
X164409524Y-108862857D01*
X164409524Y-109005714D01*
X164361905Y-109100952D01*
X164314286Y-109148571D01*
X164219048Y-109196190D01*
X163838095Y-109196190D01*
X164790476Y-109386667D02*
X165266667Y-109386667D01*
X164695238Y-109672381D02*
X165028571Y-108672381D01*
X165361905Y-109672381D01*
X165600000Y-108672381D02*
X165838095Y-109672381D01*
X166028572Y-108958095D01*
X166219048Y-109672381D01*
X166457143Y-108672381D01*
D11*
X157591143Y-136238191D02*
X157686381Y-135952477D01*
X157781619Y-135857238D01*
X157972095Y-135762000D01*
X158257810Y-135762000D01*
X158448286Y-135857238D01*
X158543524Y-135952477D01*
X158638762Y-136142953D01*
X158638762Y-136904858D01*
X156638762Y-136904858D01*
X156638762Y-136238191D01*
X156734000Y-136047715D01*
X156829238Y-135952477D01*
X157019714Y-135857238D01*
X157210190Y-135857238D01*
X157400667Y-135952477D01*
X157495905Y-136047715D01*
X157591143Y-136238191D01*
X157591143Y-136904858D01*
X158067333Y-135000096D02*
X158067333Y-134047715D01*
X158638762Y-135190572D02*
X156638762Y-134523905D01*
X158638762Y-133857238D01*
X158638762Y-132238191D02*
X158638762Y-133190572D01*
X156638762Y-133190572D01*
X158638762Y-131571524D02*
X156638762Y-131571524D01*
X156638762Y-130809619D02*
X156638762Y-129476285D01*
X158638762Y-130809619D01*
X158638762Y-129476285D01*
X158067333Y-128809619D02*
X158067333Y-127857238D01*
X158638762Y-129000095D02*
X156638762Y-128333428D01*
X158638762Y-127666761D01*
X158543524Y-125571523D02*
X158638762Y-125285808D01*
X158638762Y-124809618D01*
X158543524Y-124619142D01*
X158448286Y-124523904D01*
X158257810Y-124428665D01*
X158067333Y-124428665D01*
X157876857Y-124523904D01*
X157781619Y-124619142D01*
X157686381Y-124809618D01*
X157591143Y-125190570D01*
X157495905Y-125381046D01*
X157400667Y-125476285D01*
X157210190Y-125571523D01*
X157019714Y-125571523D01*
X156829238Y-125476285D01*
X156734000Y-125381046D01*
X156638762Y-125190570D01*
X156638762Y-124714380D01*
X156734000Y-124428665D01*
X158448286Y-123571523D02*
X158543524Y-123476284D01*
X158638762Y-123571523D01*
X158543524Y-123666761D01*
X158448286Y-123571523D01*
X158638762Y-123571523D01*
X156638762Y-122238189D02*
X156638762Y-121857237D01*
X156734000Y-121666761D01*
X156924476Y-121476284D01*
X157305429Y-121381046D01*
X157972095Y-121381046D01*
X158353048Y-121476284D01*
X158543524Y-121666761D01*
X158638762Y-121857237D01*
X158638762Y-122238189D01*
X158543524Y-122428665D01*
X158353048Y-122619142D01*
X157972095Y-122714380D01*
X157305429Y-122714380D01*
X156924476Y-122619142D01*
X156734000Y-122428665D01*
X156638762Y-122238189D01*
X158448286Y-120523904D02*
X158543524Y-120428665D01*
X158638762Y-120523904D01*
X158543524Y-120619142D01*
X158448286Y-120523904D01*
X158638762Y-120523904D01*
X158543524Y-119666761D02*
X158638762Y-119381046D01*
X158638762Y-118904856D01*
X158543524Y-118714380D01*
X158448286Y-118619142D01*
X158257810Y-118523903D01*
X158067333Y-118523903D01*
X157876857Y-118619142D01*
X157781619Y-118714380D01*
X157686381Y-118904856D01*
X157591143Y-119285808D01*
X157495905Y-119476284D01*
X157400667Y-119571523D01*
X157210190Y-119666761D01*
X157019714Y-119666761D01*
X156829238Y-119571523D01*
X156734000Y-119476284D01*
X156638762Y-119285808D01*
X156638762Y-118809618D01*
X156734000Y-118523903D01*
D12*
X149090095Y-114752381D02*
X149090095Y-113752381D01*
X149328190Y-113752381D01*
X149471048Y-113800000D01*
X149566286Y-113895238D01*
X149613905Y-113990476D01*
X149661524Y-114180952D01*
X149661524Y-114323810D01*
X149613905Y-114514286D01*
X149566286Y-114609524D01*
X149471048Y-114704762D01*
X149328190Y-114752381D01*
X149090095Y-114752381D01*
X148971048Y-111831429D02*
X149732953Y-111831429D01*
X148971048Y-116911429D02*
X149732953Y-116911429D01*
X149352001Y-117292381D02*
X149352001Y-116530476D01*
D11*
X149034572Y-125837143D02*
X150177429Y-125837143D01*
X149606000Y-126408571D02*
X149606000Y-125265714D01*
D13*
X153911563Y-114159264D02*
G75*
G03X163709357Y-114156000I4898437J1383264D01*
G01*
X153911563Y-111392736D02*
G75*
G02X163709357Y-111396000I4898437J-1383264D01*
G01*
X153911563Y-111392736D02*
G75*
G03X153910643Y-114156000I4898437J-1383264D01*
G01*
X158810000Y-117826000D02*
X158810000Y-107726000D01*
X158770000Y-117826000D02*
X158770000Y-107726000D01*
X158730000Y-117826000D02*
X158730000Y-107726000D01*
X158690000Y-117825000D02*
X158690000Y-107727000D01*
X158650000Y-117824000D02*
X158650000Y-107728000D01*
X158610000Y-117823000D02*
X158610000Y-107729000D01*
X158570000Y-117821000D02*
X158570000Y-107731000D01*
X158530000Y-117819000D02*
X158530000Y-107733000D01*
X158490000Y-117816000D02*
X158490000Y-107736000D01*
X158450000Y-117814000D02*
X158450000Y-107738000D01*
X158410000Y-117811000D02*
X158410000Y-107741000D01*
X158370000Y-117807000D02*
X158370000Y-107745000D01*
X158330000Y-117804000D02*
X158330000Y-107748000D01*
X158290000Y-117800000D02*
X158290000Y-107752000D01*
X158250000Y-117796000D02*
X158250000Y-107756000D01*
X158210000Y-117791000D02*
X158210000Y-107761000D01*
X158170000Y-117786000D02*
X158170000Y-107766000D01*
X158130000Y-117781000D02*
X158130000Y-107771000D01*
X158089000Y-117775000D02*
X158089000Y-107777000D01*
X158049000Y-117769000D02*
X158049000Y-107783000D01*
X158009000Y-117763000D02*
X158009000Y-107789000D01*
X157969000Y-117757000D02*
X157969000Y-107795000D01*
X157929000Y-117750000D02*
X157929000Y-107802000D01*
X157889000Y-117743000D02*
X157889000Y-107809000D01*
X157849000Y-117735000D02*
X157849000Y-107817000D01*
X157809000Y-117727000D02*
X157809000Y-107825000D01*
X157769000Y-117719000D02*
X157769000Y-107833000D01*
X157729000Y-117711000D02*
X157729000Y-107841000D01*
X157689000Y-117702000D02*
X157689000Y-107850000D01*
X157649000Y-117693000D02*
X157649000Y-107859000D01*
X157609000Y-117683000D02*
X157609000Y-107869000D01*
X157569000Y-117673000D02*
X157569000Y-107879000D01*
X157529000Y-117663000D02*
X157529000Y-107889000D01*
X157489000Y-117652000D02*
X157489000Y-107900000D01*
X157449000Y-117641000D02*
X157449000Y-107911000D01*
X157409000Y-117630000D02*
X157409000Y-107922000D01*
X157369000Y-117619000D02*
X157369000Y-107933000D01*
X157329000Y-117607000D02*
X157329000Y-107945000D01*
X157289000Y-117594000D02*
X157289000Y-107958000D01*
X157249000Y-117582000D02*
X157249000Y-107970000D01*
X157209000Y-117568000D02*
X157209000Y-107984000D01*
X157169000Y-117555000D02*
X157169000Y-107997000D01*
X157129000Y-117541000D02*
X157129000Y-108011000D01*
X157089000Y-117527000D02*
X157089000Y-108025000D01*
X157049000Y-117513000D02*
X157049000Y-108039000D01*
X157009000Y-117498000D02*
X157009000Y-108054000D01*
X156969000Y-117482000D02*
X156969000Y-108070000D01*
X156929000Y-117467000D02*
X156929000Y-108085000D01*
X156889000Y-117450000D02*
X156889000Y-108102000D01*
X156849000Y-117434000D02*
X156849000Y-108118000D01*
X156809000Y-117417000D02*
X156809000Y-108135000D01*
X156769000Y-117400000D02*
X156769000Y-108152000D01*
X156729000Y-117382000D02*
X156729000Y-108170000D01*
X156689000Y-117364000D02*
X156689000Y-108188000D01*
X156649000Y-117345000D02*
X156649000Y-108207000D01*
X156609000Y-117326000D02*
X156609000Y-108226000D01*
X156569000Y-117307000D02*
X156569000Y-108245000D01*
X156529000Y-117287000D02*
X156529000Y-108265000D01*
X156489000Y-117267000D02*
X156489000Y-108285000D01*
X156449000Y-117246000D02*
X156449000Y-108306000D01*
X156409000Y-117225000D02*
X156409000Y-108327000D01*
X156369000Y-117204000D02*
X156369000Y-108348000D01*
X156329000Y-117181000D02*
X156329000Y-108371000D01*
X156289000Y-117159000D02*
X156289000Y-108393000D01*
X156249000Y-117136000D02*
X156249000Y-108416000D01*
X156209000Y-117112000D02*
X156209000Y-113957000D01*
X156209000Y-111595000D02*
X156209000Y-108440000D01*
X156169000Y-117088000D02*
X156169000Y-113957000D01*
X156169000Y-111595000D02*
X156169000Y-108464000D01*
X156129000Y-117064000D02*
X156129000Y-113957000D01*
X156129000Y-111595000D02*
X156129000Y-108488000D01*
X156089000Y-117039000D02*
X156089000Y-113957000D01*
X156089000Y-111595000D02*
X156089000Y-108513000D01*
X156049000Y-117013000D02*
X156049000Y-113957000D01*
X156049000Y-111595000D02*
X156049000Y-108539000D01*
X156009000Y-116987000D02*
X156009000Y-113957000D01*
X156009000Y-111595000D02*
X156009000Y-108565000D01*
X155969000Y-116961000D02*
X155969000Y-113957000D01*
X155969000Y-111595000D02*
X155969000Y-108591000D01*
X155929000Y-116933000D02*
X155929000Y-113957000D01*
X155929000Y-111595000D02*
X155929000Y-108619000D01*
X155889000Y-116906000D02*
X155889000Y-113957000D01*
X155889000Y-111595000D02*
X155889000Y-108646000D01*
X155849000Y-116877000D02*
X155849000Y-113957000D01*
X155849000Y-111595000D02*
X155849000Y-108675000D01*
X155809000Y-116848000D02*
X155809000Y-113957000D01*
X155809000Y-111595000D02*
X155809000Y-108704000D01*
X155769000Y-116819000D02*
X155769000Y-113957000D01*
X155769000Y-111595000D02*
X155769000Y-108733000D01*
X155729000Y-116789000D02*
X155729000Y-113957000D01*
X155729000Y-111595000D02*
X155729000Y-108763000D01*
X155689000Y-116758000D02*
X155689000Y-113957000D01*
X155689000Y-111595000D02*
X155689000Y-108794000D01*
X155649000Y-116727000D02*
X155649000Y-113957000D01*
X155649000Y-111595000D02*
X155649000Y-108825000D01*
X155609000Y-116695000D02*
X155609000Y-113957000D01*
X155609000Y-111595000D02*
X155609000Y-108857000D01*
X155569000Y-116662000D02*
X155569000Y-113957000D01*
X155569000Y-111595000D02*
X155569000Y-108890000D01*
X155529000Y-116629000D02*
X155529000Y-113957000D01*
X155529000Y-111595000D02*
X155529000Y-108923000D01*
X155489000Y-116595000D02*
X155489000Y-113957000D01*
X155489000Y-111595000D02*
X155489000Y-108957000D01*
X155449000Y-116560000D02*
X155449000Y-113957000D01*
X155449000Y-111595000D02*
X155449000Y-108992000D01*
X155409000Y-116524000D02*
X155409000Y-113957000D01*
X155409000Y-111595000D02*
X155409000Y-109028000D01*
X155369000Y-116488000D02*
X155369000Y-113957000D01*
X155369000Y-111595000D02*
X155369000Y-109064000D01*
X155329000Y-116451000D02*
X155329000Y-113957000D01*
X155329000Y-111595000D02*
X155329000Y-109101000D01*
X155289000Y-116413000D02*
X155289000Y-113957000D01*
X155289000Y-111595000D02*
X155289000Y-109139000D01*
X155249000Y-116374000D02*
X155249000Y-113957000D01*
X155249000Y-111595000D02*
X155249000Y-109178000D01*
X155209000Y-116335000D02*
X155209000Y-113957000D01*
X155209000Y-111595000D02*
X155209000Y-109217000D01*
X155169000Y-116294000D02*
X155169000Y-113957000D01*
X155169000Y-111595000D02*
X155169000Y-109258000D01*
X155129000Y-116253000D02*
X155129000Y-113957000D01*
X155129000Y-111595000D02*
X155129000Y-109299000D01*
X155089000Y-116211000D02*
X155089000Y-113957000D01*
X155089000Y-111595000D02*
X155089000Y-109341000D01*
X155049000Y-116167000D02*
X155049000Y-113957000D01*
X155049000Y-111595000D02*
X155049000Y-109385000D01*
X155009000Y-116123000D02*
X155009000Y-113957000D01*
X155009000Y-111595000D02*
X155009000Y-109429000D01*
X154969000Y-116078000D02*
X154969000Y-113957000D01*
X154969000Y-111595000D02*
X154969000Y-109474000D01*
X154929000Y-116031000D02*
X154929000Y-113957000D01*
X154929000Y-111595000D02*
X154929000Y-109521000D01*
X154889000Y-115983000D02*
X154889000Y-113957000D01*
X154889000Y-111595000D02*
X154889000Y-109569000D01*
X154849000Y-115934000D02*
X154849000Y-113957000D01*
X154849000Y-111595000D02*
X154849000Y-109618000D01*
X154809000Y-115884000D02*
X154809000Y-113957000D01*
X154809000Y-111595000D02*
X154809000Y-109668000D01*
X154769000Y-115833000D02*
X154769000Y-113957000D01*
X154769000Y-111595000D02*
X154769000Y-109719000D01*
X154729000Y-115780000D02*
X154729000Y-113957000D01*
X154729000Y-111595000D02*
X154729000Y-109772000D01*
X154689000Y-115725000D02*
X154689000Y-113957000D01*
X154689000Y-111595000D02*
X154689000Y-109827000D01*
X154649000Y-115670000D02*
X154649000Y-113957000D01*
X154649000Y-111595000D02*
X154649000Y-109882000D01*
X154609000Y-115612000D02*
X154609000Y-113957000D01*
X154609000Y-111595000D02*
X154609000Y-109940000D01*
X154569000Y-115553000D02*
X154569000Y-113957000D01*
X154569000Y-111595000D02*
X154569000Y-109999000D01*
X154529000Y-115491000D02*
X154529000Y-113957000D01*
X154529000Y-111595000D02*
X154529000Y-110061000D01*
X154489000Y-115428000D02*
X154489000Y-113957000D01*
X154489000Y-111595000D02*
X154489000Y-110124000D01*
X154449000Y-115363000D02*
X154449000Y-113957000D01*
X154449000Y-111595000D02*
X154449000Y-110189000D01*
X154409000Y-115295000D02*
X154409000Y-113957000D01*
X154409000Y-111595000D02*
X154409000Y-110257000D01*
X154369000Y-115225000D02*
X154369000Y-113957000D01*
X154369000Y-111595000D02*
X154369000Y-110327000D01*
X154329000Y-115153000D02*
X154329000Y-113957000D01*
X154329000Y-111595000D02*
X154329000Y-110399000D01*
X154289000Y-115077000D02*
X154289000Y-113957000D01*
X154289000Y-111595000D02*
X154289000Y-110475000D01*
X154249000Y-114998000D02*
X154249000Y-113957000D01*
X154249000Y-111595000D02*
X154249000Y-110554000D01*
X154209000Y-114916000D02*
X154209000Y-113957000D01*
X154209000Y-111595000D02*
X154209000Y-110636000D01*
X154169000Y-114829000D02*
X154169000Y-113957000D01*
X154169000Y-111595000D02*
X154169000Y-110723000D01*
X154129000Y-114738000D02*
X154129000Y-113957000D01*
X154129000Y-111595000D02*
X154129000Y-110814000D01*
X154089000Y-114642000D02*
X154089000Y-113957000D01*
X154089000Y-111595000D02*
X154089000Y-110910000D01*
X154049000Y-114539000D02*
X154049000Y-113957000D01*
X154049000Y-111595000D02*
X154049000Y-111013000D01*
X154009000Y-114430000D02*
X154009000Y-113957000D01*
X154009000Y-111595000D02*
X154009000Y-111122000D01*
X153969000Y-114312000D02*
X153969000Y-113957000D01*
X153969000Y-111595000D02*
X153969000Y-111240000D01*
X153929000Y-114183000D02*
X153929000Y-113957000D01*
X153929000Y-111595000D02*
X153929000Y-111369000D01*
X153889000Y-114041000D02*
X153889000Y-113957000D01*
X153889000Y-111595000D02*
X153889000Y-111511000D01*
X153849000Y-113880000D02*
X153849000Y-111672000D01*
X153809000Y-113689000D02*
X153809000Y-111863000D01*
X153769000Y-113448000D02*
X153769000Y-112104000D01*
X153729000Y-113055000D02*
X153729000Y-112497000D01*
X165260000Y-112776000D02*
X163760000Y-112776000D01*
X164510000Y-113526000D02*
X164510000Y-112026000D01*
X156810000Y-138212000D02*
X156810000Y-137882000D01*
X156810000Y-137882000D02*
X163230000Y-137882000D01*
X163230000Y-137882000D02*
X163230000Y-138212000D01*
X156810000Y-140172000D02*
X156810000Y-140502000D01*
X156810000Y-140502000D02*
X163230000Y-140502000D01*
X163230000Y-140502000D02*
X163230000Y-140172000D01*
X145482000Y-118424000D02*
X148142000Y-118424000D01*
X145482000Y-113284000D02*
X145482000Y-118424000D01*
X148142000Y-113284000D02*
X148142000Y-118424000D01*
X145482000Y-113284000D02*
X148142000Y-113284000D01*
X145482000Y-112014000D02*
X145482000Y-110684000D01*
X145482000Y-110684000D02*
X146812000Y-110684000D01*
X145736000Y-129854000D02*
X148396000Y-129854000D01*
X145736000Y-127254000D02*
X145736000Y-129854000D01*
X148396000Y-127254000D02*
X148396000Y-129854000D01*
X145736000Y-127254000D02*
X148396000Y-127254000D01*
X145736000Y-125984000D02*
X145736000Y-124654000D01*
X145736000Y-124654000D02*
X147066000Y-124654000D01*
X145482000Y-140014000D02*
X148142000Y-140014000D01*
X145482000Y-137414000D02*
X145482000Y-140014000D01*
X148142000Y-137414000D02*
X148142000Y-140014000D01*
X145482000Y-137414000D02*
X148142000Y-137414000D01*
X145482000Y-136144000D02*
X145482000Y-134814000D01*
X145482000Y-134814000D02*
X146812000Y-134814000D01*
D14*
X160944858Y-110660571D02*
X160944858Y-109160571D01*
X161516286Y-109160571D01*
X161659144Y-109232000D01*
X161730572Y-109303429D01*
X161802001Y-109446286D01*
X161802001Y-109660571D01*
X161730572Y-109803429D01*
X161659144Y-109874857D01*
X161516286Y-109946286D01*
X160944858Y-109946286D01*
X163230572Y-110660571D02*
X162373429Y-110660571D01*
X162802001Y-110660571D02*
X162802001Y-109160571D01*
X162659144Y-109374857D01*
X162516286Y-109517714D01*
X162373429Y-109589143D01*
X158583334Y-113133143D02*
X158535715Y-113180762D01*
X158392858Y-113228381D01*
X158297620Y-113228381D01*
X158154762Y-113180762D01*
X158059524Y-113085524D01*
X158011905Y-112990286D01*
X157964286Y-112799810D01*
X157964286Y-112656952D01*
X158011905Y-112466476D01*
X158059524Y-112371238D01*
X158154762Y-112276000D01*
X158297620Y-112228381D01*
X158392858Y-112228381D01*
X158535715Y-112276000D01*
X158583334Y-112323619D01*
X159535715Y-113228381D02*
X158964286Y-113228381D01*
X159250000Y-113228381D02*
X159250000Y-112228381D01*
X159154762Y-112371238D01*
X159059524Y-112466476D01*
X158964286Y-112514095D01*
X159853334Y-139644381D02*
X159520000Y-139168190D01*
X159281905Y-139644381D02*
X159281905Y-138644381D01*
X159662858Y-138644381D01*
X159758096Y-138692000D01*
X159805715Y-138739619D01*
X159853334Y-138834857D01*
X159853334Y-138977714D01*
X159805715Y-139072952D01*
X159758096Y-139120571D01*
X159662858Y-139168190D01*
X159281905Y-139168190D01*
X160805715Y-139644381D02*
X160234286Y-139644381D01*
X160520000Y-139644381D02*
X160520000Y-138644381D01*
X160424762Y-138787238D01*
X160329524Y-138882476D01*
X160234286Y-138930095D01*
X145764381Y-110136381D02*
X145288190Y-110136381D01*
X145288190Y-109136381D01*
X146097714Y-109612571D02*
X146431048Y-109612571D01*
X146573905Y-110136381D02*
X146097714Y-110136381D01*
X146097714Y-109136381D01*
X146573905Y-109136381D01*
X147002476Y-110136381D02*
X147002476Y-109136381D01*
X147240571Y-109136381D01*
X147383429Y-109184000D01*
X147478667Y-109279238D01*
X147526286Y-109374476D01*
X147573905Y-109564952D01*
X147573905Y-109707810D01*
X147526286Y-109898286D01*
X147478667Y-109993524D01*
X147383429Y-110088762D01*
X147240571Y-110136381D01*
X147002476Y-110136381D01*
X147954857Y-110088762D02*
X148050095Y-110136381D01*
X148240571Y-110136381D01*
X148335810Y-110088762D01*
X148383429Y-109993524D01*
X148383429Y-109945905D01*
X148335810Y-109850667D01*
X148240571Y-109803048D01*
X148097714Y-109803048D01*
X148002476Y-109755429D01*
X147954857Y-109660190D01*
X147954857Y-109612571D01*
X148002476Y-109517333D01*
X148097714Y-109469714D01*
X148240571Y-109469714D01*
X148335810Y-109517333D01*
X145946953Y-123582571D02*
X146089810Y-123630190D01*
X146137429Y-123677810D01*
X146185048Y-123773048D01*
X146185048Y-123915905D01*
X146137429Y-124011143D01*
X146089810Y-124058762D01*
X145994572Y-124106381D01*
X145613619Y-124106381D01*
X145613619Y-123106381D01*
X145946953Y-123106381D01*
X146042191Y-123154000D01*
X146089810Y-123201619D01*
X146137429Y-123296857D01*
X146137429Y-123392095D01*
X146089810Y-123487333D01*
X146042191Y-123534952D01*
X145946953Y-123582571D01*
X145613619Y-123582571D01*
X146566000Y-123820667D02*
X147042191Y-123820667D01*
X146470762Y-124106381D02*
X146804095Y-123106381D01*
X147137429Y-124106381D01*
X147327905Y-123106381D02*
X147899334Y-123106381D01*
X147613619Y-124106381D02*
X147613619Y-123106381D01*
X148089810Y-123106381D02*
X148661239Y-123106381D01*
X148375524Y-124106381D02*
X148375524Y-123106381D01*
X145954857Y-134218762D02*
X146097714Y-134266381D01*
X146335810Y-134266381D01*
X146431048Y-134218762D01*
X146478667Y-134171143D01*
X146526286Y-134075905D01*
X146526286Y-133980667D01*
X146478667Y-133885429D01*
X146431048Y-133837810D01*
X146335810Y-133790190D01*
X146145333Y-133742571D01*
X146050095Y-133694952D01*
X146002476Y-133647333D01*
X145954857Y-133552095D01*
X145954857Y-133456857D01*
X146002476Y-133361619D01*
X146050095Y-133314000D01*
X146145333Y-133266381D01*
X146383429Y-133266381D01*
X146526286Y-133314000D01*
X146859619Y-133266381D02*
X147097714Y-134266381D01*
X147288191Y-133552095D01*
X147478667Y-134266381D01*
X147716762Y-133266381D01*
M02*
